<svg width="46" height="47" viewBox="0 0 46 47" fill="none" xmlns="http://www.w3.org/2000/svg">
<path d="M11.4251 46.3019C5.7252 45.5868 2.7001 43.9398 1.10273 40.6818C-0.46366 37.4869 -0.190426 32.7891 1.80608 28.5882C2.54755 27.0281 3.23669 26.123 5.02948 24.3549C7.16504 22.2487 8.43275 21.4226 11.3603 20.2297C11.9526 19.9884 11.9349 19.9552 10.7783 19.14C8.36529 17.4391 6.64833 14.0524 6.64833 10.9934C6.64833 7.93175 8.32975 4.61438 10.7845 2.83299C12.7188 1.42925 14.3612 0.938308 17.0994 0.945388C20.0313 0.953388 21.7837 1.66502 23.978 3.74022C25.6781 5.34812 26.6351 7.16559 26.9974 9.47461C27.5425 12.9487 26.4379 15.9904 23.7377 18.4509L22.0755 19.9655L24.35 21.0795C25.7095 21.7455 27.2895 22.7968 28.278 23.6933L29.9317 25.193V27.8166V30.4403H26.0158C23.323 30.4403 22.0008 30.5395 21.7825 30.7578C21.3408 31.1994 21.3408 38.1478 21.7825 38.5894C22.0009 38.8079 23.3251 38.9069 26.0254 38.9069H29.9508L29.8751 41.4866L29.7994 44.0663L28.3442 44.771C26.0471 45.8833 23.2028 46.3471 18.0255 46.4537C15.4788 46.5061 12.5087 46.4378 11.4252 46.3019H11.4251ZM30.99 42.0903V37.8486H26.7567H22.5233V34.6736V31.4986H26.7567H30.99V27.2653V23.0319H34.165H37.34V27.2653V31.4986H41.5817H45.8235L45.749 34.6075L45.6745 37.7163L41.514 37.7891L37.3534 37.8619L37.2806 42.0224L37.2078 46.1829L34.099 46.2574L30.9901 46.3319L30.99 42.0903Z" fill="#333333"/>
</svg>
