<svg width="31" height="35" viewBox="0 0 31 35" fill="none" xmlns="http://www.w3.org/2000/svg">
<path d="M5.10641 33.5139C5.11291 32.1366 5.4176 31.899 7.33321 31.777C8.56001 31.6989 9.07111 31.5614 9.07111 31.3096C9.07111 30.6892 10.0308 30.4051 12.1265 30.4051H14.1583L13.9756 29.1483C13.8751 28.4571 13.312 26.7604 12.7244 25.378C10.6305 20.4524 11.5188 18.5887 15.856 18.8077C17.5572 18.8936 17.8917 18.9971 18.529 19.6353C19.5786 20.6862 19.4891 22.4385 18.2418 25.258C17.3908 27.1818 16.7677 29.1942 16.7505 30.0743C16.7459 30.3103 17.3173 30.4051 18.7458 30.4051C20.8137 30.4051 21.7711 30.6913 21.7711 31.3096C21.7711 31.5614 22.2822 31.6989 23.509 31.777C25.4246 31.899 25.7293 32.1366 25.7358 33.5139L25.7399 34.3738H15.4211H5.10236L5.10641 33.5139ZM0.392775 17.123C0.21815 16.9483 0.0766163 16.5614 0.0782613 16.2631C0.0831613 15.3742 6.12524 1.47353 6.7255 0.970161C7.22552 0.550861 8.0579 0.507141 15.5417 0.507141C23.182 0.507141 23.8385 0.543339 24.2394 0.986259C24.9154 1.73327 30.7669 15.5197 30.7669 16.3654C30.7669 16.8088 30.5946 17.1854 30.3484 17.2799C30.1182 17.3682 23.3555 17.4405 15.3201 17.4405C4.30968 17.4405 0.632053 17.3623 0.392775 17.123Z" fill="white"/>
</svg>
